<svg xmlns="http://www.w3.org/2000/svg" xmlns:xlink="http://www.w3.org/1999/xlink" version="1.1" x="0px" y="0px" viewBox="0 0 512 640" enable-background="new 0 0 512 512" style="fill: white;" xml:space="preserve"><path d="M430.172,328.699c-3.414-3.423-9.406-3.423-12.844,0L265.111,480.986V9.093  c0-5.017-4.078-9.095-9.094-9.095c-5.017,0-9.095,4.078-9.095,9.095v471.862L94.706,328.715c-3.43-3.454-9.422-3.438-12.852-0.016  c-1.734,1.734-2.688,4.031-2.688,6.438c0,2.422,0.953,4.703,2.68,6.438l166.053,166.162h0.016l1.68,1.688  c3.423,3.438,9.423,3.438,12.845,0L430.18,341.59C433.719,338.027,433.719,332.262,430.172,328.699z"/></svg>